<?xml version="1.0" encoding="UTF-8" standalone="no"?>
<!-- Created with Inkscape (http://www.inkscape.org/) -->

<svg width="114.3mm" height="114.3mm" viewBox="0 0 114.3 114.3" version="1.1" id="svg1" xml:space="preserve"
	xmlns="http://www.w3.org/2000/svg"><defs
     id="defs1" /><g
     id="layer1"
     transform="translate(-133.26289,-75.900764)"><path
       style="fill:#000000"
       d="m 199.58089,156.79594 c -0.6628,-0.47229 -3.2584,-2.52559 -5.76799,-4.56288 -2.50959,-2.03729 -5.24129,-4.25339 -6.07043,-4.92466 l -1.50754,-1.22049 -1.97682,-0.29402 c -1.08726,-0.1617 -2.28488,-0.41113 -2.66138,-0.55428 l -0.68456,-0.26027 -1.4012,-1.88316 -1.4012,-1.88317 -0.92604,0.14392 -0.92604,0.14392 -0.92605,1.07072 -0.92604,1.07072 -0.84069,-0.004 -0.84069,-0.004 -0.54837,-0.69714 c -0.30161,-0.38343 -0.54837,-0.909 -0.54837,-1.16793 v -0.47079 l -1.38906,-0.84765 c -0.76399,-0.46621 -1.94777,-1.20641 -2.63062,-1.6449 l -1.24156,-0.79724 -1.08713,-3.06341 c -1.18542,-3.34038 -1.41629,-3.74636 -2.1304,-3.74636 -0.73195,0 -2.03488,-1.23612 -2.36853,-2.24708 l -0.29929,-0.90684 0.52303,-1.18238 0.52302,-1.18238 0.80379,-0.41566 c 0.44209,-0.22861 1.22042,-0.41566 1.72962,-0.41566 h 0.92581 l 1.25021,-1.78594 c 0.68761,-0.98226 1.4973,-2.06747 1.7993,-2.41157 0.52112,-0.59377 9.20428,-7.92529 9.85101,-8.31759 0.16835,-0.10211 2.66866,-0.36116 5.55625,-0.57567 2.8876,-0.21451 6.18975,-0.46931 7.33812,-0.56622 l 2.08795,-0.1762 0.4256,-0.46653 c 0.23407,-0.25659 0.62873,-0.76125 0.87703,-1.12147 l 0.45143,-0.65493 0.87006,-0.1277 c 0.47853,-0.0702 1.20173,-0.0121 1.60712,0.12925 l 0.73707,0.25694 0.38883,0.75193 c 0.21386,0.41356 0.38884,1.04091 0.38884,1.39412 0,0.35321 0.14883,0.75687 0.33073,0.89702 0.1819,0.14014 2.53338,1.1712 5.22552,2.29125 6.56272,2.73036 6.27146,2.55817 8.56368,5.06275 l 2.02012,2.20728 1.43232,-0.14783 1.43233,-0.14783 0.71052,0.71053 0.71053,0.71053 -0.12302,0.97779 c -0.0677,0.53779 -0.27401,1.33764 -0.45855,1.77744 l -0.33554,0.79963 1.0041,1.56966 1.0041,1.56966 -0.48452,3.05467 c -0.26649,1.68006 -0.57915,3.3191 -0.6948,3.64231 l -0.21026,0.58765 -2.27673,1.46873 -2.27673,1.46874 0.17029,1.3832 0.17029,1.38319 -0.8848,2.11667 -0.8848,2.11667 -2.24375,0.74249 -2.24374,0.74248 -4.23333,-0.68132 c -2.32834,-0.37473 -4.4417,-0.67908 -4.69636,-0.67634 l -0.46302,0.005 v 0.52125 0.52124 l 0.8227,0.60323 c 0.45249,0.33178 0.92676,0.87367 1.05394,1.2042 l 0.23123,0.60096 -0.40478,1.01163 -0.40478,1.01164 0.54147,1.95396 c 0.93478,3.37327 0.71088,3.8765 -1.13845,2.55873 z m 0.35553,-1.58632 c -8.1e-4,-0.1819 -0.13008,-0.80698 -0.28727,-1.38906 l -0.2858,-1.05834 -1.03564,-0.96162 -1.03565,-0.96162 v -0.56904 c 0,-0.31297 0.19096,-0.86048 0.42435,-1.21668 l 0.42435,-0.64763 -0.32187,-1.34172 c -0.17703,-0.73794 -0.25394,-1.40964 -0.17091,-1.49267 0.083,-0.083 1.07871,0.0318 2.21262,0.25511 1.13392,0.22334 3.3941,0.61493 5.02262,0.8702 l 2.96095,0.46412 1.74668,-0.4728 1.74667,-0.4728 0.6281,-0.82747 c 0.34545,-0.4551 0.82921,-1.33262 1.07503,-1.95005 l 0.44694,-1.12258 -0.13023,-0.99408 c -0.0716,-0.54675 -0.21542,-1.25532 -0.31954,-1.5746 l -0.18932,-0.58052 0.92096,-0.47782 c 1.28384,-0.66608 3.70169,-2.29938 4.06965,-2.74911 0.16854,-0.20599 0.50953,-1.48241 0.75777,-2.83648 l 0.45134,-2.46195 -0.16533,-0.82667 c -0.0909,-0.45466 -0.52392,-1.38547 -0.96219,-2.06845 l -0.79685,-1.24178 -1.1453,-0.4374 -1.1453,-0.43739 -0.30393,-0.66705 c -0.16716,-0.36688 -0.30392,-1.02661 -0.30392,-1.46608 v -0.79902 l -1.38907,-1.58921 c -0.76398,-0.87407 -2.16297,-2.15403 -3.10885,-2.84436 l -1.71979,-1.25515 -4.8405,-2.06754 -4.84051,-2.06755 -1.03009,0.4645 -1.03009,0.46451 -0.71846,-0.18032 c -0.39516,-0.0992 -1.20837,-0.51738 -1.80714,-0.92935 l -1.08867,-0.74902 -6.2129,0.49434 c -3.41709,0.27188 -6.66275,0.60402 -7.21258,0.73809 -1.08012,0.26336 -1.06973,0.2565 -3.65645,2.41276 -0.96014,0.80036 -2.62702,2.18831 -3.70417,3.08434 -2.73008,2.27102 -3.59489,3.1659 -4.77169,4.93759 -1.1598,1.74613 -1.14961,1.71121 -0.66419,2.27598 0.19746,0.22974 0.47869,0.9089 0.62496,1.50923 l 0.26594,1.09153 -0.32923,0.783 c -0.18107,0.43065 -0.6409,1.02816 -1.02183,1.3278 -0.38094,0.29965 -0.69083,0.70627 -0.68864,0.9036 0.009,0.7976 1.33959,4.59048 1.90493,5.42934 l 0.60464,0.89718 2.08007,1.22579 2.08006,1.2258 0.90597,-0.3276 0.90596,-0.3276 0.95356,0.56262 0.95356,0.56261 0.73848,-0.1622 c 0.40617,-0.0892 0.88035,-0.33314 1.05375,-0.54206 0.17339,-0.20893 0.53078,-0.37987 0.7942,-0.37987 h 0.47894 l 0.18418,0.59531 c 0.21498,0.69485 2.39227,3.67923 2.89393,3.96666 0.50481,0.28925 4.00811,0.99428 4.94055,0.99428 h 0.80465 l 1.89003,1.83219 c 1.96051,1.90052 9.94169,8.48099 10.29055,8.48454 0.10914,0.001 0.19777,-0.14681 0.19696,-0.32871 z m -26.29249,-18.93195 c -0.0723,-0.11698 -0.0186,-0.71473 0.11923,-1.32833 l 0.25067,-1.11566 -0.43978,-0.67118 -0.43978,-0.67119 0.53193,-0.71246 0.53193,-0.71246 h 0.76163 0.76163 l 0.36625,0.76415 0.36624,0.76415 -0.71833,1.74918 c -0.39509,0.96205 -0.85595,1.83675 -1.02414,1.94378 -0.40574,0.25819 -0.90462,0.25352 -1.06748,-0.01 z m 7.38606,-1.16471 c -0.0632,-0.18832 -0.16982,-2.9263 -0.23702,-6.0844 l -0.12218,-5.74199 0.35004,-0.2905 0.35003,-0.2905 1.67675,0.0794 1.67674,0.0794 v 0.66146 0.66145 l -0.85989,0.0829 c -0.47295,0.0456 -0.87522,0.16467 -0.89394,0.26459 -0.0187,0.0999 -0.0677,2.11058 -0.10895,4.46813 l -0.0749,4.28645 0.30738,0.2542 c 0.16906,0.13981 0.66457,0.29449 1.10114,0.34375 l 0.79375,0.0896 v 0.66146 0.66145 l -1.92206,0.0778 -1.92205,0.0778 z m 23.13232,-0.22678 -0.30469,-0.56931 0.22295,-0.21731 c 0.12262,-0.11952 0.63967,-0.25557 1.14899,-0.30233 l 0.92604,-0.085 v -4.6302 -4.63021 l -0.92604,-0.13229 -0.92604,-0.1323 v -0.66145 -0.66146 h 1.85208 1.85209 l 0.16233,3.175 c 0.0893,1.74625 0.0893,4.54422 0,6.21771 l -0.16233,3.0427 -1.77035,0.0779 -1.77035,0.0779 z m -14.71976,-1.46903 -0.45338,-0.69194 0.38939,-0.69712 0.38938,-0.69712 0.80804,-0.0797 0.80803,-0.0797 0.27581,0.34424 c 0.1517,0.18933 0.356,0.60604 0.45402,0.92602 l 0.17821,0.58178 -0.5427,0.5427 -0.5427,0.5427 h -0.65536 -0.65536 z m 6.25723,-3.42168 c -0.14497,-0.3813 -0.19618,-0.80235 -0.11379,-0.93566 l 0.1498,-0.24238 h 2.77082 2.77081 l 0.1661,0.43284 c 0.0914,0.23806 0.0452,0.62501 -0.10253,0.8599 l -0.26863,0.42705 -2.5545,0.0758 -2.5545,0.0758 z"
       id="path1" /></g></svg>
