<?xml version="1.0" encoding="UTF-8"?>
<!-- Created with Inkscape (http://www.inkscape.org/) -->
<svg id="svg1" width="114.3mm" height="114.3mm" version="1.1" viewBox="0 0 114.3 114.3" xml:space="preserve" xmlns="http://www.w3.org/2000/svg"><g id="layer1" transform="translate(-133.26 -75.901)"><path id="path1" d="m199.58 156.8c-0.6628-0.47229-3.2584-2.5256-5.768-4.5629s-5.2413-4.2534-6.0704-4.9247l-1.5075-1.2205-1.9768-0.29402c-1.0873-0.1617-2.2849-0.41113-2.6614-0.55428l-0.68456-0.26027-1.4012-1.8832-1.4012-1.8832-1.8521 0.28784-1.8521 2.1414-1.6814-8e-3 -0.54837-0.69714c-0.30161-0.38343-0.54837-0.909-0.54837-1.1679v-0.47079l-1.3891-0.84765c-0.76399-0.46621-1.9478-1.2064-2.6306-1.6449l-1.2416-0.79724-1.0871-3.0634c-1.1854-3.3404-1.4163-3.7464-2.1304-3.7464-0.73195 0-2.0349-1.2361-2.3685-2.2471l-0.29929-0.90684 1.046-2.3648 0.80379-0.41566c0.44209-0.22861 1.2204-0.41566 1.7296-0.41566h0.92581l1.2502-1.7859c0.68761-0.98226 1.4973-2.0675 1.7993-2.4116 0.52112-0.59377 9.2043-7.9253 9.851-8.3176 0.16835-0.10211 2.6687-0.36116 5.5562-0.57567 2.8876-0.21451 6.1898-0.46931 7.3381-0.56622l2.088-0.1762 0.4256-0.46653c0.23407-0.25659 0.62873-0.76125 0.87703-1.1215l0.45143-0.65493 0.87006-0.1277c0.47853-0.0702 1.2017-0.0121 1.6071 0.12925l0.73707 0.25694 0.38883 0.75193c0.21386 0.41356 0.38884 1.0409 0.38884 1.3941s0.14883 0.75687 0.33073 0.89702c0.1819 0.14014 2.5334 1.1712 5.2255 2.2912 6.5627 2.7304 6.2715 2.5582 8.5637 5.0628l2.0201 2.2073 2.8646-0.29566 1.421 1.4211-0.12302 0.97779c-0.0677 0.53779-0.27401 1.3376-0.45855 1.7774l-0.33554 0.79963 2.0082 3.1393-0.48452 3.0547c-0.26649 1.6801-0.57915 3.3191-0.6948 3.6423l-0.21026 0.58765-4.5535 2.9375 0.17029 1.3832 0.17029 1.3832-1.7696 4.2333-4.4875 1.485-4.2333-0.68132c-2.3283-0.37473-4.4417-0.67908-4.6964-0.67634l-0.46302 5e-3v1.0425l0.8227 0.60323c0.45249 0.33178 0.92676 0.87367 1.0539 1.2042l0.23123 0.60096-0.80956 2.0233 0.54147 1.954c0.93478 3.3733 0.71088 3.8765-1.1384 2.5587zm0.35553-1.5863c-8.1e-4 -0.1819-0.13008-0.80698-0.28727-1.3891l-0.2858-1.0583-2.0713-1.9232v-0.56904c0-0.31297 0.19096-0.86048 0.42435-1.2167l0.42435-0.64763-0.32187-1.3417c-0.17703-0.73794-0.25394-1.4096-0.17091-1.4927 0.083-0.083 1.0787 0.0318 2.2126 0.25511 1.1339 0.22334 3.3941 0.61493 5.0226 0.8702l2.961 0.46412 3.4934-0.9456 0.6281-0.82747c0.34545-0.4551 0.82921-1.3326 1.075-1.95l0.44694-1.1226-0.13023-0.99408c-0.0716-0.54675-0.21542-1.2553-0.31954-1.5746l-0.18932-0.58052 0.92096-0.47782c1.2838-0.66608 3.7017-2.2994 4.0696-2.7491 0.16854-0.20599 0.50953-1.4824 0.75777-2.8365l0.45134-2.462-0.16533-0.82667c-0.0909-0.45466-0.52392-1.3855-0.96219-2.0684l-0.79685-1.2418-2.2906-0.87479-0.30393-0.66705c-0.16716-0.36688-0.30392-1.0266-0.30392-1.4661v-0.79902l-1.3891-1.5892c-0.76398-0.87407-2.163-2.154-3.1088-2.8444l-1.7198-1.2552-9.681-4.1351-2.0602 0.92901-0.71846-0.18032c-0.39516-0.0992-1.2084-0.51738-1.8071-0.92935l-1.0887-0.74902-6.2129 0.49434c-3.4171 0.27188-6.6628 0.60402-7.2126 0.73809-1.0801 0.26336-1.0697 0.2565-3.6564 2.4128-0.96014 0.80036-2.627 2.1883-3.7042 3.0843-2.7301 2.271-3.5949 3.1659-4.7717 4.9376-1.1598 1.7461-1.1496 1.7112-0.66419 2.276 0.19746 0.22974 0.47869 0.9089 0.62496 1.5092l0.26594 1.0915-0.32923 0.783c-0.18107 0.43065-0.6409 1.0282-1.0218 1.3278-0.38094 0.29965-0.69083 0.70627-0.68864 0.9036 9e-3 0.7976 1.3396 4.5905 1.9049 5.4293l0.60464 0.89718 2.0801 1.2258 2.0801 1.2258 1.8119-0.6552 1.9071 1.1252 0.73848-0.1622c0.40617-0.0892 0.88035-0.33314 1.0538-0.54206 0.17339-0.20893 0.53078-0.37987 0.7942-0.37987h0.47894l0.18418 0.59531c0.21498 0.69485 2.3923 3.6792 2.8939 3.9667 0.50481 0.28925 4.0081 0.99428 4.9406 0.99428h0.80465l1.89 1.8322c1.9605 1.9005 9.9417 8.481 10.291 8.4845 0.10914 1e-3 0.19777-0.14681 0.19696-0.32871zm-26.292-18.932c-0.0723-0.11698-0.0186-0.71473 0.11923-1.3283l0.25067-1.1157-0.43978-0.67118-0.43978-0.67119 1.0639-1.4249h1.5233l0.36625 0.76415 0.36624 0.76415-0.71833 1.7492c-0.39509 0.96205-0.85595 1.8368-1.0241 1.9438-0.40574 0.25819-0.90462 0.25352-1.0675-0.01zm7.3861-1.1647c-0.0632-0.18832-0.16982-2.9263-0.23702-6.0844l-0.12218-5.742 0.70007-0.581 3.3535 0.1588v1.3229l-0.85989 0.0829c-0.47295 0.0456-0.87522 0.16467-0.89394 0.26459-0.0187 0.0999-0.0677 2.1106-0.10895 4.4681l-0.0749 4.2864 0.30738 0.2542c0.16906 0.13981 0.66457 0.29449 1.1011 0.34375l0.79375 0.0896v1.3229l-3.8441 0.1556zm23.132-0.22678-0.30469-0.56931 0.22295-0.21731c0.12262-0.11952 0.63967-0.25557 1.149-0.30233l0.92604-0.085v-9.2604l-0.92604-0.13229-0.92604-0.1323v-1.3229h3.7042l0.16233 3.175c0.0893 1.7462 0.0893 4.5442 0 6.2177l-0.16233 3.0427-3.5407 0.1558zm-14.72-1.469-0.45338-0.69194 0.77877-1.3942 1.6161-0.1594 0.27581 0.34424c0.1517 0.18933 0.356 0.60604 0.45402 0.92602l0.17821 0.58178-1.0854 1.0854h-1.3107zm6.2572-3.4217c-0.14497-0.3813-0.19618-0.80235-0.11379-0.93566l0.1498-0.24238h5.5416l0.1661 0.43284c0.0914 0.23806 0.0452 0.62501-0.10253 0.8599l-0.26863 0.42705-5.109 0.1516z"/></g></svg>
